<svg width="39" height="39" viewBox="0 0 39 39" fill="none" xmlns="http://www.w3.org/2000/svg">
<rect width="39" height="39" rx="19.5" fill="white"/>
<path d="M12.5885 10.6801C11.6668 10.6273 10.9054 11.0007 10.308 11.7967C9.85628 12.3941 9.63224 13.1391 9.63224 14.0298V18.4322L17.2871 18.5V21.1207H9.63224V30.7908H6.78711V21.1207H9.80163V18.4322H6.78711V14.139C6.78711 12.62 7.20607 11.303 8.04576 10.192C8.71606 9.30126 9.5612 8.67286 10.5776 8.30493C11.6049 7.93881 12.6522 7.90238 13.7214 8.19564C14.9582 8.53079 16.0164 9.26483 16.898 10.3978L14.807 11.9078C14.2205 11.1428 13.481 10.7347 12.5903 10.6819L12.5885 10.6801Z" fill="#A7368D"/>
<path d="M21.1523 24.5226L22.7661 23.7011V15.0893L21.1523 14.2678V24.5226ZM27.1284 21.4771L31.2121 19.3952L27.1284 17.3133V21.4771ZM24.0047 23.0691L25.888 22.1092V16.6813L24.0047 15.7214V23.0691ZM18.2871 25.9834L19.9137 25.1546V13.6357L18.2871 12.807V25.9834Z" fill="#F6C32E"/>
</svg>
